<svg xmlns="http://www.w3.org/2000/svg" viewBox="0 0 90.76 103.65">
  <g>
    <polygon points="90.76 25.65 45.45 0 34.04 6.42 78.87 32.35 78.87 58.47 52.7 72.38 52.7 47.18 7.06 21.64 0 25.62 0 25.62 0 25.62 0 25.62 0 78.03 11.11 84.4 11.11 43.04 19.99 48.08 19.99 89.15 29.21 94.17 29.21 53.32 38.09 58.37 38.09 99.31 45.53 103.65 45.53 103.65 45.53 103.65 45.53 103.65 45.53 103.65 52.7 99.78 52.7 87.37 90.74 67.19 90.76 25.65"/>
    <polygon points="54.39 26.55 26.68 10.63 16.61 16.3 43.96 32.35 54.39 26.55"/>
  </g>
</svg>
